REM DIRINDEX 1\2,1\3
REM DIRNAME cjc080,folder01,folder02
TITLE ""
FILE "ScrambleS_3Part1_Theme066.mp3" MP3
  TRACK 01 AUDIO
    TITLE "3:cjc080_0336"
    INDEX 01 00:00:00
  TRACK 02 AUDIO
    TITLE "0:"
    INDEX 01 00:01:42
  TRACK 03 AUDIO
    TITLE "2:cjc080_0337"
    INDEX 01 00:02:57
  TRACK 04 AUDIO
    TITLE "0:"
    INDEX 01 00:06:65
  TRACK 05 AUDIO
    TITLE "2:cjc080_0338"
    INDEX 01 00:08:03
  TRACK 06 AUDIO
    TITLE "0:"
    INDEX 01 00:11:42
